# xmcd CD database file
#
# Track frame offsets:
#	150
#	14290
#	35010
#	46455
#	67337
#	81755
#	101340
#	115810
#	134060
#	147765
#	164105
#	177580
#	194227
#	206542
#	223775
#	238952
#	254485
#	269717
#
# Disc length: 3811 seconds
#
# Revision: 1
# Processed by: cddbd v1.5.1PL0 Copyright (c) Steve Scherf et al.
# Submitted via: CDex 1.51
#
DISCID=2e0ee112
DTITLE=石原裕次郎 - 石原裕次郎 大全集Disc1
DYEAR=1999
DGENRE=Blues
TTITLE0=狂った果実
TTITLE1=引き潮
TTITLE2=俺は待ってるぜ
TTITLE3=それぞれの旅
TTITLE4=錆びたナイフ
TTITLE5=北の旅人
TTITLE6=お前にゃ俺がついている
TTITLE7=わが人生に悔いなし
TTITLE8=口笛が聞こえる港町
TTITLE9=おれの小樽
TTITLE10=嵐を呼ぶ男
TTITLE11=時間よお前は…
TTITLE12=鷲と鷹
TTITLE13=よこはま物語
TTITLE14=明日は明日の風が吹く
TTITLE15=夜のめぐり逢い
TTITLE16=風速四十米
TTITLE17=昭和たずねびと
EXTD=YEAR: 1999/11/21
EXTT0=
EXTT1=
EXTT2=
EXTT3=
EXTT4=
EXTT5=
EXTT6=
EXTT7=
EXTT8=
EXTT9=
EXTT10=
EXTT11=
EXTT12=
EXTT13=
EXTT14=
EXTT15=
EXTT16=
EXTT17=
PLAYORDER=
